<svg xmlns="http://www.w3.org/2000/svg" height="24" width="24" viewBox="0 0 24 24" class="rarity-imagestyles__Image-sc-13e17gd-0 kuTWIR card-rarity-selectorstyles__RarityImageStyled-sc-1inq5xn-2 gtAhMb"><defs><radialGradient cx="50.0892308%" cy="49.9468571%" fx="50.0892308%" fy="49.9468571%" r="59.2830769%" gradientTransform="matrix(1 0 0 .74286 0 .128)" id="a_11b4d77b-cea8-4f5e-8ca1-2c97c5ea55d5"><stop stop-color="#FBECE3" offset="0%"/><stop stop-color="#E1CEC1" offset="52.48%"/><stop stop-color="#C7B0A0" offset="99.3%"/></radialGradient><linearGradient x1="50.1348837%" y1="0.212017167%" x2="50.1348837%" y2="100.057511%" id="b_11b4d77b-cea8-4f5e-8ca1-2c97c5ea55d5"><stop stop-color="#EDAA2B" offset="0%"/><stop stop-color="#EDA929" offset="3.532755%"/><stop stop-color="#E9960D" offset="64.74%"/><stop stop-color="#E78F02" offset="100%"/></linearGradient></defs><g transform="translate(4.1 2)" fill-rule="nonzero" stroke="none" stroke-width="1" fill="none"><path fill="url(#a_11b4d77b-cea8-4f5e-8ca1-2c97c5ea55d5)" d="M0.342857143 4.97142857L7.77142857 0 15.2 4.97142857 15.2 14.9714286 7.77142857 20 0.342857143 14.9714286z"/><path stroke="#72572E" fill="url(#b_11b4d77b-cea8-4f5e-8ca1-2c97c5ea55d5)" d="M2.85714286 6.68571429L7.77142857 3.31428571 12.6857143 6.68571429 12.6857143 13.3142857 7.77142857 16.6285714 2.85714286 13.3142857z"/><path transform="translate(0 14.286)" fill="#9F8D82" d="M7.77142857 5.71428571L0.342857143 0.685714286 0.342857143 0.171428571 7.77142857 5.2 15.2 0.171428571 15.2 0.685714286z"/><path opacity="0.5" fill="#F7EBDE" d="M15.2 5.48571429L7.77142857 0.514285714 0.342857143 5.48571429 0.342857143 4.97142857 7.77142857 0 15.2 4.97142857z"/></g></svg>